<mxfile host="app.diagrams.net" modified="2024-06-01T11:14:56.276Z" agent="Mozilla/5.0 (Windows NT 10.0; Win64; x64; rv:126.0) Gecko/20100101 Firefox/126.0" version="22.1.13" etag="sbNv2Ak1PMt8cWDhCd48" type="github">
  <diagram name="Page-1" id="jO8U_TxOKtu35358IPTG">
    <mxGraphModel>
      <root>
        <mxCell id="0" />
        <mxCell id="1" parent="0" />
      </root>
    </mxGraphModel>
  </diagram>
</mxfile>
